<?xml version="1.0" encoding="utf-8"?>
<!-- Generator: Adobe Illustrator 21.0.2, SVG Export Plug-In . SVG Version: 6.00 Build 0)  -->
<svg version="1.1" id="LOGO_1_" xmlns="http://www.w3.org/2000/svg" xmlns:xlink="http://www.w3.org/1999/xlink" x="0px" y="0px"
	 viewBox="0 0 2500 2100" style="enable-background:new 0 0 2500 2100;" xml:space="preserve">
<style type="text/css">
	.st0{display:none;fill:#2B4F9C;}
	.st1{display:none;}
	.st2{display:inline;fill:#FFFFFF;}
	.st3{display:inline;}
	.st4{fill:#FFFFFF;}
</style>
<rect id="BG" x="-750" y="-950" class="st0" width="4000" height="4000"/>
<g id="Logo_with_text" class="st1">
	<path class="st2" d="M567.5,2659.6c1-1.5,1.9-2.9,2.9-4.5c0,0,0,0,0,0c2.2-3.1,4.6-6,7.3-8.7c12.3-12.3,28.6-19.1,46-19.1v-48.8
		c-22.2,0-43,6.4-60.5,17.4c-13.5,8.5-25,19.7-33.9,32.8c0,0,0,0,0,0l0,0c-1,1.5-1.9,2.9-2.9,4.4c0,0,0,0,0,0
		c-2.2,3.1-4.6,6-7.3,8.7c-12.3,12.3-28.6,19.1-46,19.1c-17.4,0-33.7-6.8-46-19.1c-2.7-2.7-5.2-5.6-7.3-8.7c-0.9-1.5-1.9-3-2.9-4.5
		l0,0c-8.9-13.2-20.5-24.4-33.9-32.8c-17.5-11-38.3-17.4-60.5-17.4v48.8c17.4,0,33.7,6.8,46,19.1c2.7,2.7,5.2,5.6,7.3,8.7
		c0.9,1.5,1.9,3,2.9,4.5c0,0,0,0,0,0c5.8,9.9,8.9,21.1,8.9,32.8c0,17.4-6.8,33.7-19.1,46c-12.3,12.3-28.6,19.1-46,19.1v48.8
		c59.1,0,107.8-45.1,113.4-102.8c11.7,4.1,24.2,6.3,37.3,6.3s25.6-2.2,37.3-6.3c5.6,57.7,54.2,102.8,113.4,102.8v-48.8
		c-17.4,0-33.7-6.8-46-19.1c-12.3-12.3-19.1-28.6-19.1-46C558.6,2680.7,561.7,2669.5,567.5,2659.6
		C567.5,2659.6,567.5,2659.6,567.5,2659.6z"/>
	<g class="st3">
		<path class="st4" d="M882.1,2632.2c0,17.8-13.6,29-34.9,29h-28.2v-58.1h28.2C868.5,2603.2,882.1,2614.4,882.1,2632.2z M875,2632.2
			c0-14.9-11.7-22.6-28.2-22.6H826v45.1h20.7C863.3,2654.8,875,2647.1,875,2632.2z"/>
		<path class="st4" d="M1003.1,2654.8v6.5h-56.2v-58.1h55.4v6.5h-48.4v18.8h41v6.5h-41v19.8H1003.1z"/>
		<path class="st4" d="M1125.1,2644.4c0,10.7-10.9,18.6-29.8,18.6c-12.7,0-24.9-4-33.9-12l4.9-5.2c8.5,7.5,17.8,10.7,29.5,10.7
			c14,0,22.2-4.4,22.2-11.6c0-7.1-8.5-8.8-24.2-10.1c-15.5-1.3-30.4-4.7-30.4-16.2c0-11,13.8-17.2,29.3-17.2
			c12.6,0,23,4.4,29.7,10.4l-5.5,4.6c-5.6-5.6-14.2-8.5-23.9-8.5c-10.4-0.1-22.5,2.8-22.5,10.5c0,7.2,11,8.7,24.6,9.8
			C1112.8,2629.5,1125.1,2632.9,1125.1,2644.4z"/>
		<path class="st4" d="M1241,2609.5h-27.5v51.8h-7v-51.8h-27.4v-6.3h61.8V2609.5z"/>
		<path class="st4" d="M1302.2,2661.2v-58.1h7v58.1H1302.2z"/>
		<path class="st4" d="M1440,2603.2v58.1h-6.1L1385,2612v49.2h-6.8v-58.1h7.6l47.4,47.9v-47.9H1440z"/>
		<path class="st4" d="M1509.3,2603.2l24.4,31.5l24.2-31.5h8.3l-29.1,37.8v20.3h-7v-20.3l-29.2-37.8H1509.3z"/>
		<path class="st4" d="M890.9,2751.3l16.5,8.2c-7.5,11.2-22.7,20.2-43.4,20.2c-29.7,0-49-15.7-49-42c0-26.3,19.3-42,49.8-42
			c19.9,0,35.1,9.2,42.4,20.1l-16.6,8.2c-5.7-8.8-14.2-12.8-26-12.8c-18.8,0-31.2,9-31.2,26.4c0,17.4,12.4,26.4,31.2,26.4
			C876.3,2764.1,885,2760.3,890.9,2751.3z"/>
		<path class="st4" d="M1011.9,2761.7v15.6h-74v-79.1H956v63.5H1011.9z"/>
		<path class="st4" d="M1106.7,2760.5h-47.8l-8.5,16.7h-19.3l41.9-79.1h19.8l41.9,79.1h-19.6L1106.7,2760.5z M1099.2,2745.8
			l-16.4-32.2l-16.4,32.2H1099.2z"/>
		<path class="st4" d="M1252.5,2698.1v79.1h-15.8l-56.7-57.2v57.2h-17.5v-79.1h19.2l53.3,54.2v-54.2H1252.5z"/>
		<path class="st4" d="M1444.8,2698.1v79.1h-18.1v-55l-34.7,42.4h-0.9l-34.7-42.4v55H1339v-79.1h19.7l33.4,41.8l33.5-41.8H1444.8z"
			/>
		<path class="st4" d="M1548.2,2760.5h-47.8l-8.5,16.7h-19.3l41.9-79.1h19.8l41.9,79.1h-19.6L1548.2,2760.5z M1540.7,2745.8
			l-16.4-32.2l-16.4,32.2H1540.7z"/>
		<path class="st4" d="M1694,2698.1v79.1h-15.8l-56.7-57.2v57.2h-17.5v-79.1h19.2l53.3,54.2v-54.2H1694z"/>
		<path class="st4" d="M1797.4,2760.5h-47.8l-8.5,16.7h-19.3l41.9-79.1h19.8l41.9,79.1h-19.6L1797.4,2760.5z M1789.8,2745.8
			l-16.4-32.2l-16.4,32.2H1789.8z"/>
		<path class="st4" d="M1939.4,2761.2c-7.9,10.7-23.5,18.5-45,18.5c-31.8,0-51.1-15.6-51.1-42c0-26.4,19.3-42,51.1-42
			c19.4,0,33.2,7.3,41.1,15l-14.1,10.3c-6.9-6.8-14.9-9.9-26.9-9.9c-20.7,0-32.8,9-32.8,26.7c0,17.6,12.4,26.7,33.5,26.7
			c11.9,0,21.6-2.6,27.2-9.4v-7.7h-29.8v-14.7h46.8V2761.2z"/>
		<path class="st4" d="M2054.3,2762.1v15.1h-81.5v-79.1h80.3v15.1h-62.4v16.3h52.1v15.1h-52.1v17.4H2054.3z"/>
		<path class="st4" d="M2156.1,2777.2l-22.7-26.9h-28.6v26.9h-18v-79.1h54.6c19.3,0,33.9,8.9,33.9,26.1c0,13.4-8.9,21.8-22,24.9
			l24.4,28.1H2156.1z M2140.4,2735.4c9.5,0,16.5-2.3,16.5-11.1s-7-11.1-16.5-11.1h-35.7v22.1H2140.4z"/>
	</g>
	<rect x="719.5" y="2503.4" class="st2" width="9" height="378"/>
</g>
<path id="LOGO" class="st4" d="M1830.4,848.2c6.1-9,11.9-18.1,17.6-27.4c0,0,0,0,0,0c13.3-19,28.4-36.9,45.1-53.6
	c75.6-75.5,176-117.2,282.8-117.2V350c-136.6,0-264.1,39.1-371.9,106.8c-82.8,52-153.9,120.9-208.6,201.8c0,0,0,0,0,0l0,0
	c-6.1,9-11.9,18.1-17.5,27.3c0,0,0,0.1-0.1,0.1c-13.3,19-28.4,36.9-45.1,53.7c-75.6,75.6-176,117.2-282.8,117.2
	s-207.3-41.6-282.8-117.2c-16.7-16.7-31.8-34.7-45.1-53.7c-5.7-9.3-11.5-18.4-17.6-27.4l0,0c-54.7-80.9-125.8-149.8-208.6-201.8
	C588.1,389.1,460.6,350,324,350v300c106.8,0,207.3,41.6,282.8,117.2c16.7,16.7,31.8,34.7,45.1,53.7c5.7,9.3,11.5,18.4,17.6,27.4
	c0,0,0,0,0,0C705.1,908.8,724,977.9,724,1050c0,106.8-41.6,207.3-117.2,282.8c-75.6,75.6-176,117.2-282.8,117.2v300
	c363.5,0,662.3-277.1,696.7-631.6c71.8,24.9,149,38.4,229.3,38.4s157.5-13.5,229.3-38.4c34.4,354.5,333.2,631.6,696.7,631.6v-300
	c-106.8,0-207.3-41.6-282.8-117.2c-75.6-75.5-117.2-176-117.2-282.8C1776,977.9,1794.9,908.8,1830.4,848.2
	C1830.4,848.2,1830.4,848.2,1830.4,848.2z"/>
</svg>
